# xmcd
#
# Track frame offsets: 
#        183
#        24765
#        50530
#        85998
#        115925
#        142385
#
# Disc length: 2220 seconds
#
# Revision: 5
# Processed by: cddbd v1.5.2PL0 Copyright (c) Steve Scherf et al.
# Submitted via: ExactAudioCopyFreeDBPlugin 1.0
#
DISCID=4d08aa06
DTITLE=En Vogue - Remix To Sing
DYEAR=1991
DGENRE=R&B
TTITLE0=Hold On (Hip Hop Remix)
TTITLE1=Lies (New Jack Remix)
TTITLE2=You Don't Have To Worry (Club Mix)
TTITLE3=Strange (House Remix)
TTITLE4=Time Goes On (Dance Remix)
TTITLE5=Silent Nite (Happy Holiday Mix)
EXTD=YEAR: 1990
EXTT0=
EXTT1=
EXTT2=
EXTT3=
EXTT4=
EXTT5=
PLAYORDER=
